<svg width="30" height="24" viewBox="0 0 30 24" fill="none" xmlns="http://www.w3.org/2000/svg">
<path d="M27.1875 3.5H24.375V2.5625C24.375 2.06522 24.1775 1.58831 23.8258 1.23667C23.4742 0.885044 22.9973 0.6875 22.5 0.6875H7.5C7.00272 0.6875 6.52581 0.885044 6.17417 1.23667C5.82254 1.58831 5.625 2.06522 5.625 2.5625V3.5H2.8125C2.31522 3.5 1.83831 3.69754 1.48667 4.04918C1.13504 4.40081 0.9375 4.87772 0.9375 5.375V7.25C0.9375 8.4932 1.43136 9.68549 2.31044 10.5646C2.74571 10.9998 3.26246 11.3451 3.83117 11.5807C4.39988 11.8163 5.00943 11.9375 5.625 11.9375H6.05273C6.60498 13.6876 7.65793 15.2375 9.08145 16.3957C10.505 17.5539 12.2367 18.2696 14.0625 18.4543V21.3125H11.25C11.0014 21.3125 10.7629 21.4113 10.5871 21.5871C10.4113 21.7629 10.3125 22.0014 10.3125 22.25C10.3125 22.4986 10.4113 22.7371 10.5871 22.9129C10.7629 23.0887 11.0014 23.1875 11.25 23.1875H18.75C18.9986 23.1875 19.2371 23.0887 19.4129 22.9129C19.5887 22.7371 19.6875 22.4986 19.6875 22.25C19.6875 22.0014 19.5887 21.7629 19.4129 21.5871C19.2371 21.4113 18.9986 21.3125 18.75 21.3125H15.9375V18.4508C19.6805 18.0723 22.7859 15.4461 23.9156 11.9375H24.375C25.6182 11.9375 26.8105 11.4436 27.6896 10.5646C28.5686 9.68549 29.0625 8.4932 29.0625 7.25V5.375C29.0625 4.87772 28.865 4.40081 28.5133 4.04918C28.1617 3.69754 27.6848 3.5 27.1875 3.5ZM5.625 10.0625C4.87908 10.0625 4.16371 9.76618 3.63626 9.23874C3.10882 8.71129 2.8125 7.99592 2.8125 7.25V5.375H5.625V9.125C5.625 9.4375 5.64023 9.75 5.6707 10.0625H5.625ZM22.5 9.01953C22.5 13.182 19.1613 16.5945 15.0574 16.625H15C13.0109 16.625 11.1032 15.8348 9.6967 14.4283C8.29018 13.0218 7.5 11.1141 7.5 9.125V2.5625H22.5V9.01953ZM27.1875 7.25C27.1875 7.99592 26.8912 8.71129 26.3637 9.23874C25.8363 9.76618 25.1209 10.0625 24.375 10.0625H24.3164C24.3549 9.71617 24.3744 9.36799 24.375 9.01953V5.375H27.1875V7.25Z" fill="#C3C5C8"/>
</svg>
