<svg width="18" height="18" viewBox="0 0 18 18" fill="none" xmlns="http://www.w3.org/2000/svg">
<path d="M17.4027 10.6672C17.3185 10.5828 17.2129 10.523 17.0973 10.4941C16.9817 10.4652 16.8604 10.4683 16.7464 10.5031C15.4951 10.8814 14.1646 10.9131 12.8966 10.5949C11.6287 10.2767 10.4709 9.6204 9.54649 8.69603C8.62212 7.77165 7.96585 6.61381 7.64761 5.34588C7.32937 4.07795 7.36109 2.74743 7.73939 1.4961C7.77449 1.38208 7.77786 1.26064 7.74911 1.14485C7.72036 1.02906 7.66059 0.923301 7.57623 0.83894C7.49187 0.754579 7.38611 0.694811 7.27032 0.666064C7.15453 0.637317 7.03309 0.640679 6.91907 0.675788C5.18906 1.20575 3.67026 2.26784 2.5788 3.71094C1.62429 4.97821 1.04207 6.48653 0.897539 8.06645C0.753008 9.64637 1.0519 11.2353 1.76063 12.6547C2.46935 14.0741 3.55984 15.2678 4.90958 16.1016C6.25932 16.9354 7.81482 17.3764 9.40134 17.3749C11.2522 17.3806 13.0539 16.7789 14.5299 15.6621C15.973 14.5706 17.0351 13.0518 17.5651 11.3218C17.5998 11.2082 17.603 11.0873 17.5744 10.972C17.5458 10.8568 17.4864 10.7514 17.4027 10.6672ZM13.7408 14.6137C12.3508 15.6607 10.6294 16.1702 8.89352 16.0487C7.15762 15.9271 5.52405 15.1826 4.29353 13.9522C3.06301 12.7218 2.31836 11.0883 2.19667 9.35239C2.07498 7.6165 2.58444 5.89508 3.63126 4.50501C4.31327 3.60435 5.19499 2.87426 6.20704 2.37219C6.14939 2.77679 6.12033 3.18495 6.12009 3.59364C6.12248 5.85553 7.02207 8.0241 8.62147 9.62351C10.2209 11.2229 12.3894 12.1225 14.6513 12.1249C15.0608 12.1248 15.4698 12.0957 15.8752 12.0379C15.3727 13.0502 14.642 13.9319 13.7408 14.6137Z" fill="#696F79"/>
</svg>
