<svg width="25" height="25" viewBox="0 0 25 25" fill="none" xmlns="http://www.w3.org/2000/svg">
<path d="M22.8125 6.375H19.0625V2.625C19.0625 2.12772 18.865 1.65081 18.5133 1.29917C18.1617 0.947544 17.6848 0.75 17.1875 0.75H2.1875C1.69022 0.75 1.21331 0.947544 0.861675 1.29917C0.510044 1.65081 0.3125 2.12772 0.3125 2.625V17.625C0.31305 17.8014 0.363344 17.974 0.457604 18.1231C0.551863 18.2722 0.686265 18.3916 0.845368 18.4678C1.00447 18.5439 1.18182 18.5736 1.35704 18.5534C1.53227 18.5333 1.69825 18.4641 1.83594 18.3539L5.9375 15.0469V18.5625C5.9375 19.0598 6.13504 19.5367 6.48668 19.8883C6.83831 20.24 7.31522 20.4375 7.8125 20.4375H18.7801L23.1641 23.9789C23.3299 24.1131 23.5366 24.1867 23.75 24.1875C23.9986 24.1875 24.2371 24.0887 24.4129 23.9129C24.5887 23.7371 24.6875 23.4986 24.6875 23.25V8.25C24.6875 7.75272 24.49 7.27581 24.1383 6.92418C23.7867 6.57254 23.3098 6.375 22.8125 6.375ZM5.29883 13.1461L2.1875 15.6621V2.625H17.1875V12.9375H5.88828C5.67372 12.9375 5.46565 13.0112 5.29883 13.1461ZM22.8125 21.2871L19.7012 18.7711C19.5353 18.6369 19.3286 18.5633 19.1152 18.5625H7.8125V14.8125H17.1875C17.6848 14.8125 18.1617 14.615 18.5133 14.2633C18.865 13.9117 19.0625 13.4348 19.0625 12.9375V8.25H22.8125V21.2871Z" fill="#C3C5C8"/>
</svg>
