<svg width="30" height="22" viewBox="0 0 30 22" fill="none" xmlns="http://www.w3.org/2000/svg">
<path d="M28.6876 12.625C28.5891 12.6988 28.477 12.7526 28.3578 12.7831C28.2385 12.8137 28.1144 12.8205 27.9925 12.803C27.8707 12.7856 27.7534 12.7444 27.6475 12.6817C27.5415 12.6189 27.449 12.536 27.3751 12.4375C26.8101 11.6779 26.0745 11.0617 25.2278 10.6383C24.3811 10.2149 23.4468 9.99629 22.5001 9.99997C22.3158 9.99995 22.1355 9.94558 21.9819 9.84365C21.8283 9.74173 21.7081 9.59677 21.6364 9.42692C21.5878 9.31158 21.5627 9.18765 21.5627 9.06247C21.5627 8.93728 21.5878 8.81335 21.6364 8.69801C21.7081 8.52816 21.8283 8.3832 21.9819 8.28128C22.1355 8.17935 22.3158 8.12498 22.5001 8.12496C23.0261 8.12492 23.5416 7.97736 23.988 7.69904C24.4343 7.42072 24.7937 7.0228 25.0252 6.55048C25.2568 6.07816 25.3512 5.55038 25.2978 5.02707C25.2445 4.50376 25.0454 4.00591 24.7233 3.59007C24.4011 3.17423 23.9688 2.85706 23.4755 2.67459C22.9821 2.49213 22.4475 2.45168 21.9323 2.55784C21.4171 2.664 20.942 2.91251 20.5609 3.27515C20.1799 3.63779 19.9082 4.10002 19.7767 4.60934C19.7459 4.72861 19.6919 4.84064 19.6179 4.93905C19.5438 5.03746 19.451 5.12032 19.3449 5.18289C19.2388 5.24546 19.1215 5.28652 18.9995 5.30373C18.8775 5.32093 18.7534 5.31395 18.6341 5.28317C18.5148 5.25239 18.4028 5.19842 18.3044 5.12434C18.206 5.05027 18.1231 4.95753 18.0605 4.85143C17.998 4.74534 17.9569 4.62795 17.9397 4.50598C17.9225 4.38402 17.9295 4.25986 17.9603 4.14059C18.1428 3.43432 18.4876 2.78039 18.9674 2.23085C19.4471 1.6813 20.0485 1.2513 20.7236 0.975063C21.3988 0.698826 22.1291 0.583975 22.8564 0.639649C23.5838 0.695323 24.2881 0.919986 24.9133 1.29576C25.5386 1.67153 26.0675 2.18805 26.458 2.80421C26.8485 3.42036 27.0898 4.11915 27.1627 4.84498C27.2356 5.5708 27.1381 6.30363 26.878 6.98514C26.6178 7.66665 26.2022 8.27805 25.6642 8.77067C26.939 9.32262 28.0471 10.1985 28.8786 11.3113C28.9525 11.41 29.0062 11.5224 29.0365 11.6419C29.0669 11.7614 29.0734 11.8857 29.0557 12.0078C29.0379 12.1298 28.9963 12.2471 28.9331 12.353C28.87 12.4589 28.7865 12.5513 28.6876 12.625ZM22.3736 19.8437C22.4414 19.9504 22.4869 20.0697 22.5075 20.1945C22.528 20.3193 22.523 20.4469 22.493 20.5697C22.4629 20.6925 22.4083 20.808 22.3324 20.9091C22.2565 21.0103 22.161 21.095 22.0515 21.1583C21.9421 21.2216 21.8209 21.2621 21.6954 21.2773C21.5699 21.2926 21.4426 21.2823 21.3212 21.247C21.1997 21.2118 21.0867 21.1524 20.9888 21.0723C20.8909 20.9923 20.8103 20.8933 20.7517 20.7812C20.1611 19.7812 19.32 18.9525 18.3114 18.3768C17.3028 17.801 16.1615 17.4983 15.0001 17.4983C13.8387 17.4983 12.6975 17.801 11.6888 18.3768C10.6802 18.9525 9.83912 19.7812 9.24855 20.7812C9.18994 20.8933 9.10928 20.9923 9.01141 21.0723C8.91354 21.1524 8.80049 21.2118 8.67905 21.247C8.55762 21.2823 8.43032 21.2926 8.3048 21.2773C8.17928 21.2621 8.05815 21.2216 7.94868 21.1583C7.83921 21.095 7.74367 21.0103 7.66782 20.9091C7.59196 20.808 7.53735 20.6925 7.50726 20.5697C7.47718 20.4469 7.47225 20.3193 7.49277 20.1945C7.5133 20.0697 7.55884 19.9504 7.62667 19.8437C8.53558 18.282 9.92143 17.0531 11.5806 16.3375C10.647 15.6227 9.96085 14.6333 9.61863 13.5084C9.27641 12.3834 9.29531 11.1796 9.67267 10.0659C10.05 8.95233 10.7669 7.98496 11.7225 7.29982C12.678 6.61468 13.8243 6.24621 15.0001 6.24621C16.1759 6.24621 17.3222 6.61468 18.2778 7.29982C19.2333 7.98496 19.9502 8.95233 20.3276 10.0659C20.7049 11.1796 20.7238 12.3834 20.3816 13.5084C20.0394 14.6333 19.3532 15.6227 18.4196 16.3375C20.0788 17.0531 21.4646 18.282 22.3736 19.8437ZM15.0001 15.625C15.7418 15.625 16.4668 15.405 17.0835 14.993C17.7002 14.5809 18.1808 13.9953 18.4647 13.31C18.7485 12.6248 18.8228 11.8708 18.6781 11.1434C18.5334 10.4159 18.1762 9.74776 17.6518 9.22331C17.1273 8.69887 16.4591 8.34171 15.7317 8.19702C15.0043 8.05233 14.2503 8.12659 13.565 8.41042C12.8798 8.69425 12.2942 9.17489 11.8821 9.79158C11.47 10.4083 11.2501 11.1333 11.2501 11.875C11.2501 12.8695 11.6452 13.8234 12.3485 14.5266C13.0517 15.2299 14.0056 15.625 15.0001 15.625ZM8.43761 9.06247C8.43761 8.81382 8.33884 8.57537 8.16302 8.39955C7.98721 8.22374 7.74875 8.12496 7.50011 8.12496C6.97409 8.12492 6.45862 7.97736 6.01226 7.69904C5.5659 7.42072 5.20654 7.0228 4.97499 6.55048C4.74345 6.07816 4.649 5.55038 4.70238 5.02707C4.75575 4.50376 4.95482 4.00591 5.27696 3.59007C5.5991 3.17423 6.0314 2.85706 6.52476 2.67459C7.01812 2.49213 7.55276 2.45168 8.06796 2.55784C8.58316 2.664 9.05826 2.91251 9.4393 3.27515C9.82034 3.63779 10.092 4.10002 10.2235 4.60934C10.2857 4.85021 10.441 5.05652 10.6553 5.18289C10.8696 5.30926 11.1253 5.34533 11.3661 5.28317C11.607 5.22101 11.8133 5.06571 11.9397 4.85143C12.066 4.63716 12.1021 4.38146 12.04 4.14059C11.8574 3.43432 11.5126 2.78039 11.0329 2.23085C10.5531 1.6813 9.95177 1.2513 9.27662 0.975063C8.60147 0.698826 7.87116 0.583975 7.14381 0.639649C6.41646 0.695323 5.71214 0.919986 5.0869 1.29576C4.46166 1.67153 3.93274 2.18805 3.54225 2.80421C3.15175 3.42036 2.91044 4.11915 2.83754 4.84498C2.76463 5.5708 2.86213 6.30363 3.12227 6.98514C3.38242 7.66665 3.79803 8.27805 4.33605 8.77067C3.06255 9.32314 1.95564 10.199 1.12511 11.3113C0.975772 11.5102 0.911566 11.7603 0.946619 12.0065C0.981673 12.2528 1.11311 12.475 1.31203 12.6244C1.51094 12.7737 1.76103 12.8379 2.00728 12.8029C2.25353 12.7678 2.47577 12.6364 2.62511 12.4375C3.19017 11.6779 3.92567 11.0617 4.77241 10.6383C5.61914 10.2149 6.55344 9.99629 7.50011 9.99997C7.74875 9.99997 7.98721 9.90119 8.16302 9.72538C8.33884 9.54956 8.43761 9.31111 8.43761 9.06247Z" fill="#C3C5C8"/>
</svg>
