<svg width="28" height="24" viewBox="0 0 28 24" fill="none" xmlns="http://www.w3.org/2000/svg">
<path d="M19.8594 0.861328C17.4395 0.861328 15.3207 1.90195 14 3.66094C12.6793 1.90195 10.5605 0.861328 8.14062 0.861328C6.21433 0.863499 4.36755 1.62968 3.00545 2.99178C1.64335 4.35388 0.877171 6.20066 0.875 8.12695C0.875 16.3301 13.0379 22.9699 13.5559 23.2441C13.6924 23.3176 13.845 23.356 14 23.356C14.155 23.356 14.3076 23.3176 14.4441 23.2441C14.9621 22.9699 27.125 16.3301 27.125 8.12695C27.1228 6.20066 26.3566 4.35388 24.9946 2.99178C23.6325 1.62968 21.7857 0.863499 19.8594 0.861328ZM14 21.3457C11.8602 20.0988 2.75 14.4188 2.75 8.12695C2.75186 6.69784 3.3204 5.3278 4.33093 4.31726C5.34147 3.30673 6.71151 2.73819 8.14062 2.73633C10.4199 2.73633 12.3336 3.95039 13.1328 5.90039C13.2034 6.07234 13.3236 6.21941 13.478 6.32291C13.6324 6.42641 13.8141 6.48167 14 6.48167C14.1859 6.48167 14.3676 6.42641 14.522 6.32291C14.6764 6.21941 14.7966 6.07234 14.8672 5.90039C15.6664 3.94688 17.5801 2.73633 19.8594 2.73633C21.2885 2.73819 22.6585 3.30673 23.6691 4.31726C24.6796 5.3278 25.2481 6.69784 25.25 8.12695C25.25 14.4094 16.1375 20.0977 14 21.3457Z" fill="#8692A6"/>
</svg>
