<svg width="19" height="18" viewBox="0 0 19 18" fill="none" xmlns="http://www.w3.org/2000/svg">
<path d="M18.6178 16.4251L14.024 7.23758C13.9695 7.12859 13.8857 7.03693 13.7821 6.97287C13.6784 6.90881 13.5589 6.87488 13.4371 6.87488C13.3152 6.87488 13.1958 6.90881 13.0921 6.97287C12.9884 7.03693 12.9047 7.12859 12.8502 7.23758L11.0693 10.8002C9.67333 10.7217 8.33023 10.2395 7.20312 9.41223C8.52554 8.00003 9.32679 6.17905 9.47457 4.25H11.4688C11.6428 4.25 11.8097 4.18086 11.9328 4.05779C12.0559 3.93472 12.125 3.7678 12.125 3.59375C12.125 3.4197 12.0559 3.25278 11.9328 3.12971C11.8097 3.00664 11.6428 2.9375 11.4688 2.9375H6.875V1.625C6.875 1.45095 6.80586 1.28403 6.68279 1.16096C6.55972 1.03789 6.3928 0.96875 6.21875 0.96875C6.0447 0.96875 5.87778 1.03789 5.75471 1.16096C5.63164 1.28403 5.5625 1.45095 5.5625 1.625V2.9375H0.96875C0.794702 2.9375 0.627782 3.00664 0.504711 3.12971C0.38164 3.25278 0.3125 3.4197 0.3125 3.59375C0.3125 3.7678 0.38164 3.93472 0.504711 4.05779C0.627782 4.18086 0.794702 4.25 0.96875 4.25H8.15715C8.01098 5.85835 7.32827 7.37083 6.21875 8.54434C5.52736 7.81481 4.99643 6.94855 4.66016 6.00137C4.63251 5.91873 4.58867 5.84242 4.53122 5.7769C4.47376 5.71138 4.40383 5.65796 4.3255 5.61976C4.24718 5.58156 4.16203 5.55934 4.07503 5.5544C3.98802 5.54946 3.90091 5.56189 3.81876 5.59098C3.73661 5.62007 3.66108 5.66523 3.59658 5.72382C3.53207 5.78241 3.47988 5.85327 3.44305 5.93225C3.40622 6.01123 3.38549 6.09675 3.38207 6.18383C3.37865 6.2709 3.39261 6.35779 3.42312 6.43941C3.81463 7.54673 4.43135 8.5609 5.23438 9.41797C3.99797 10.3265 2.50308 10.8152 0.96875 10.8125C0.794702 10.8125 0.627782 10.8816 0.504711 11.0047C0.38164 11.1278 0.3125 11.2947 0.3125 11.4688C0.3125 11.6428 0.38164 11.8097 0.504711 11.9328C0.627782 12.0559 0.794702 12.125 0.96875 12.125C2.87236 12.1271 4.7214 11.4892 6.21875 10.3138C7.44067 11.2685 8.89933 11.8728 10.4384 12.0618L8.25641 16.4251C8.17852 16.5807 8.16566 16.761 8.22066 16.9261C8.27565 17.0913 8.394 17.2278 8.54967 17.3057C8.70533 17.3836 8.88556 17.3964 9.05071 17.3414C9.21585 17.2864 9.35239 17.1681 9.43027 17.0124L10.5615 14.75H16.3127L17.4439 17.0124C17.4985 17.1215 17.5823 17.2131 17.6861 17.2772C17.7898 17.3412 17.9093 17.3751 18.0312 17.375C18.1431 17.3749 18.2531 17.3463 18.3507 17.2918C18.4484 17.2373 18.5305 17.1587 18.5893 17.0635C18.648 16.9684 18.6815 16.8597 18.6865 16.748C18.6915 16.6363 18.6678 16.5251 18.6178 16.4251ZM11.2177 13.4375L13.4375 8.99879L15.6564 13.4375H11.2177Z" fill="#696F79"/>
</svg>
