<svg width="14" height="24" viewBox="0 0 14 24" fill="none" xmlns="http://www.w3.org/2000/svg">
<path d="M13.0612 13.1725L3.0612 23.1725C2.7794 23.4543 2.39721 23.6126 1.9987 23.6126C1.60018 23.6126 1.21799 23.4543 0.936195 23.1725C0.654403 22.8907 0.496094 22.5085 0.496094 22.11C0.496094 21.7115 0.654403 21.3293 0.936195 21.0475L9.87495 12.1113L0.938696 3.17252C0.799166 3.03299 0.688485 2.86735 0.612972 2.68504C0.537459 2.50274 0.498593 2.30735 0.498593 2.11002C0.498593 1.9127 0.537459 1.71731 0.612972 1.535C0.688485 1.3527 0.799166 1.18705 0.938696 1.04752C1.07823 0.907994 1.24387 0.797314 1.42618 0.721801C1.60848 0.646288 1.80387 0.607422 2.0012 0.607422C2.19852 0.607422 2.39391 0.646288 2.57622 0.721801C2.75852 0.797314 2.92417 0.907994 3.0637 1.04752L13.0637 11.0475C13.2034 11.187 13.3141 11.3528 13.3896 11.5352C13.4651 11.7176 13.5039 11.9131 13.5036 12.1105C13.5034 12.308 13.4642 12.5034 13.3883 12.6856C13.3123 12.8679 13.2012 13.0333 13.0612 13.1725Z" fill="#1DBF73"/>
</svg>
