<svg width="17" height="17" viewBox="0 0 17 17" fill="none" xmlns="http://www.w3.org/2000/svg">
<path d="M7.1875 15.7188C7.1875 15.8928 7.11836 16.0597 6.99529 16.1828C6.87222 16.3059 6.7053 16.375 6.53125 16.375H1.9375C1.5894 16.375 1.25556 16.2367 1.00942 15.9906C0.763281 15.7444 0.625 15.4106 0.625 15.0625V1.9375C0.625 1.5894 0.763281 1.25556 1.00942 1.00942C1.25556 0.763281 1.5894 0.625 1.9375 0.625H6.53125C6.7053 0.625 6.87222 0.694141 6.99529 0.817211C7.11836 0.940282 7.1875 1.1072 7.1875 1.28125C7.1875 1.4553 7.11836 1.62222 6.99529 1.74529C6.87222 1.86836 6.7053 1.9375 6.53125 1.9375H1.9375V15.0625H6.53125C6.7053 15.0625 6.87222 15.1316 6.99529 15.2547C7.11836 15.3778 7.1875 15.5447 7.1875 15.7188ZM16.183 8.0357L12.9018 4.75445C12.7787 4.63131 12.6116 4.56214 12.4375 4.56214C12.2634 4.56214 12.0963 4.63131 11.9732 4.75445C11.8501 4.87759 11.7809 5.0446 11.7809 5.21875C11.7809 5.3929 11.8501 5.55991 11.9732 5.68305L14.1347 7.84375H6.53125C6.3572 7.84375 6.19028 7.91289 6.06721 8.03596C5.94414 8.15903 5.875 8.32595 5.875 8.5C5.875 8.67405 5.94414 8.84097 6.06721 8.96404C6.19028 9.08711 6.3572 9.15625 6.53125 9.15625H14.1347L11.9732 11.317C11.8501 11.4401 11.7809 11.6071 11.7809 11.7812C11.7809 11.9554 11.8501 12.1224 11.9732 12.2455C12.0963 12.3687 12.2634 12.4379 12.4375 12.4379C12.6116 12.4379 12.7787 12.3687 12.9018 12.2455L16.183 8.9643C16.2441 8.90335 16.2925 8.83097 16.3255 8.7513C16.3585 8.67164 16.3755 8.58624 16.3755 8.5C16.3755 8.41376 16.3585 8.32836 16.3255 8.2487C16.2925 8.16903 16.2441 8.09665 16.183 8.0357Z" fill="#F56342"/>
</svg>
