<svg width="25" height="22" viewBox="0 0 25 22" fill="none" xmlns="http://www.w3.org/2000/svg">
<path d="M22.8125 0.6875H2.1875C1.69022 0.6875 1.21331 0.885044 0.861675 1.23667C0.510044 1.58831 0.3125 2.06522 0.3125 2.5625V19.4375C0.3125 19.9348 0.510044 20.4117 0.861675 20.7633C1.21331 21.115 1.69022 21.3125 2.1875 21.3125H22.8125C23.3098 21.3125 23.7867 21.115 24.1383 20.7633C24.49 20.4117 24.6875 19.9348 24.6875 19.4375V2.5625C24.6875 2.06522 24.49 1.58831 24.1383 1.23667C23.7867 0.885044 23.3098 0.6875 22.8125 0.6875ZM22.8125 2.5625V14.6035L19.7574 11.5496C19.5833 11.3755 19.3766 11.2373 19.1491 11.143C18.9216 11.0488 18.6777 11.0003 18.4314 11.0003C18.1852 11.0003 17.9413 11.0488 17.7138 11.143C17.4863 11.2373 17.2796 11.3755 17.1055 11.5496L14.7617 13.8934L9.60547 8.73711C9.25387 8.38574 8.77715 8.18837 8.28008 8.18837C7.78301 8.18837 7.30628 8.38574 6.95469 8.73711L2.1875 13.5043V2.5625H22.8125ZM2.1875 16.1562L8.28125 10.0625L17.6562 19.4375H2.1875V16.1562ZM22.8125 19.4375H20.3082L16.0895 15.2188L18.4332 12.875L22.8125 17.2555V19.4375ZM14.375 7.71875C14.375 7.44062 14.4575 7.16874 14.612 6.93748C14.7665 6.70622 14.9861 6.52598 15.2431 6.41954C15.5001 6.31311 15.7828 6.28526 16.0556 6.33952C16.3284 6.39378 16.579 6.52771 16.7756 6.72438C16.9723 6.92105 17.1062 7.17162 17.1605 7.4444C17.2147 7.71719 17.1869 7.99994 17.0805 8.2569C16.974 8.51386 16.7938 8.73348 16.5625 8.888C16.3313 9.04253 16.0594 9.125 15.7812 9.125C15.4083 9.125 15.0506 8.97684 14.7869 8.71312C14.5232 8.4494 14.375 8.09171 14.375 7.71875Z" fill="#C3C5C8"/>
</svg>
