<svg width="19" height="19" viewBox="0 0 19 19" fill="none" xmlns="http://www.w3.org/2000/svg">
<path d="M9.5 0.96875C7.81268 0.96875 6.16325 1.4691 4.7603 2.40653C3.35734 3.34395 2.26387 4.67635 1.61816 6.23523C0.972446 7.79411 0.803499 9.50947 1.13268 11.1644C1.46186 12.8193 2.27438 14.3394 3.4675 15.5325C4.66062 16.7256 6.18074 17.5381 7.83564 17.8673C9.49054 18.1965 11.2059 18.0276 12.7648 17.3818C14.3237 16.7361 15.6561 15.6427 16.5935 14.2397C17.5309 12.8368 18.0313 11.1873 18.0313 9.5C18.0289 7.23811 17.1293 5.06954 15.5299 3.47013C13.9305 1.87073 11.7619 0.971139 9.5 0.96875ZM5.07688 15.2012C5.55162 14.4587 6.20563 13.8477 6.97863 13.4244C7.75162 13.0012 8.61872 12.7793 9.5 12.7793C10.3813 12.7793 11.2484 13.0012 12.0214 13.4244C12.7944 13.8477 13.4484 14.4587 13.9231 15.2012C12.6585 16.1847 11.1021 16.7187 9.5 16.7187C7.89792 16.7187 6.34153 16.1847 5.07688 15.2012ZM6.875 8.84375C6.875 8.32457 7.02896 7.81706 7.3174 7.38538C7.60584 6.9537 8.0158 6.61725 8.49546 6.41857C8.97512 6.21989 9.50292 6.1679 10.0121 6.26919C10.5213 6.37048 10.989 6.62048 11.3562 6.9876C11.7233 7.35471 11.9733 7.82244 12.0746 8.33164C12.1759 8.84084 12.1239 9.36864 11.9252 9.84829C11.7265 10.328 11.3901 10.7379 10.9584 11.0264C10.5267 11.3148 10.0192 11.4688 9.5 11.4688C8.80381 11.4688 8.13613 11.1922 7.64385 10.6999C7.15157 10.2076 6.875 9.53994 6.875 8.84375ZM14.8944 14.2914C14.1625 13.2308 13.1333 12.4103 11.9363 11.933C12.5793 11.4266 13.0485 10.7324 13.2786 9.94699C13.5088 9.16155 13.4884 8.32391 13.2205 7.55057C12.9525 6.77722 12.4502 6.1066 11.7834 5.63197C11.1166 5.15734 10.3185 4.90229 9.5 4.90229C8.68154 4.90229 7.88342 5.15734 7.21663 5.63197C6.54984 6.1066 6.04753 6.77722 5.77955 7.55057C5.51156 8.32391 5.49123 9.16155 5.72138 9.94699C5.95152 10.7324 6.4207 11.4266 7.06368 11.933C5.86669 12.4103 4.83754 13.2308 4.10563 14.2914C3.18078 13.2514 2.5763 11.9662 2.36496 10.5906C2.15363 9.21499 2.34446 7.80761 2.91447 6.53793C3.48448 5.26826 4.40937 4.19043 5.57777 3.43423C6.74616 2.67803 8.10825 2.27571 9.5 2.27571C10.8918 2.27571 12.2538 2.67803 13.4222 3.43423C14.5906 4.19043 15.5155 5.26826 16.0855 6.53793C16.6556 7.80761 16.8464 9.21499 16.635 10.5906C16.4237 11.9662 15.8192 13.2514 14.8944 14.2914Z" fill="#696F79"/>
</svg>
