<svg width="25" height="24" viewBox="0 0 25 24" fill="none" xmlns="http://www.w3.org/2000/svg">
<path d="M22.8125 4.5625H18.125V3.625C18.125 2.87908 17.8287 2.16371 17.3012 1.63626C16.7738 1.10882 16.0584 0.8125 15.3125 0.8125H9.6875C8.94158 0.8125 8.22621 1.10882 7.69876 1.63626C7.17132 2.16371 6.875 2.87908 6.875 3.625V4.5625H2.1875C1.69022 4.5625 1.21331 4.76004 0.861675 5.11167C0.510044 5.46331 0.3125 5.94022 0.3125 6.4375V21.4375C0.3125 21.9348 0.510044 22.4117 0.861675 22.7633C1.21331 23.115 1.69022 23.3125 2.1875 23.3125H22.8125C23.3098 23.3125 23.7867 23.115 24.1383 22.7633C24.49 22.4117 24.6875 21.9348 24.6875 21.4375V6.4375C24.6875 5.94022 24.49 5.46331 24.1383 5.11167C23.7867 4.76004 23.3098 4.5625 22.8125 4.5625ZM8.75 3.625C8.75 3.37636 8.84877 3.1379 9.02459 2.96209C9.2004 2.78627 9.43886 2.6875 9.6875 2.6875H15.3125C15.5611 2.6875 15.7996 2.78627 15.9754 2.96209C16.1512 3.1379 16.25 3.37636 16.25 3.625V4.5625H8.75V3.625ZM22.8125 6.4375V11.3137C19.6482 13.0361 16.1027 13.9381 12.5 13.9375C8.89743 13.9382 5.35206 13.0365 2.1875 11.3148V6.4375H22.8125ZM22.8125 21.4375H2.1875V13.4266C5.39835 14.9971 8.92562 15.8132 12.5 15.8125C16.0744 15.8126 19.6017 14.9961 22.8125 13.4254V21.4375ZM9.6875 11.125C9.6875 10.8764 9.78627 10.6379 9.96209 10.4621C10.1379 10.2863 10.3764 10.1875 10.625 10.1875H14.375C14.6236 10.1875 14.8621 10.2863 15.0379 10.4621C15.2137 10.6379 15.3125 10.8764 15.3125 11.125C15.3125 11.3736 15.2137 11.6121 15.0379 11.7879C14.8621 11.9637 14.6236 12.0625 14.375 12.0625H10.625C10.3764 12.0625 10.1379 11.9637 9.96209 11.7879C9.78627 11.6121 9.6875 11.3736 9.6875 11.125Z" fill="#C3C5C8"/>
</svg>
