<svg width="19" height="19" viewBox="0 0 19 19" fill="none" xmlns="http://www.w3.org/2000/svg">
<path d="M9.49997 5.56248C8.72121 5.56248 7.95993 5.79342 7.31241 6.22607C6.6649 6.65873 6.16022 7.27368 5.8622 7.99317C5.56418 8.71265 5.4862 9.50435 5.63813 10.2682C5.79006 11.032 6.16507 11.7335 6.71574 12.2842C7.26641 12.8349 7.968 13.2099 8.7318 13.3618C9.4956 13.5138 10.2873 13.4358 11.0068 13.1378C11.7263 12.8397 12.3412 12.3351 12.7739 11.6875C13.2065 11.04 13.4375 10.2787 13.4375 9.49998C13.4364 8.45603 13.0212 7.45514 12.283 6.71695C11.5448 5.97876 10.5439 5.56357 9.49997 5.56248ZM9.49997 12.125C8.9808 12.125 8.47328 11.971 8.0416 11.6826C7.60992 11.3942 7.27347 10.9842 7.07479 10.5045C6.87611 10.0249 6.82412 9.49707 6.92541 8.98787C7.0267 8.47867 7.2767 8.01094 7.64382 7.64383C8.01093 7.27672 8.47866 7.02671 8.98786 6.92542C9.49706 6.82414 10.0249 6.87612 10.5045 7.0748C10.9842 7.27348 11.3941 7.60993 11.6826 8.04161C11.971 8.47329 12.125 8.98081 12.125 9.49998C12.125 10.1962 11.8484 10.8639 11.3561 11.3561C10.8638 11.8484 10.1962 12.125 9.49997 12.125ZM18.5185 7.79455C18.5002 7.70214 18.4622 7.61475 18.4072 7.53831C18.3521 7.46188 18.2813 7.39819 18.1994 7.35159L15.7524 5.95705L15.7426 3.19916C15.7423 3.10418 15.7213 3.0104 15.6813 2.92429C15.6412 2.83818 15.5829 2.7618 15.5104 2.70041C14.6228 1.94958 13.6006 1.37419 12.4982 1.00483C12.4114 0.975444 12.3194 0.96457 12.2281 0.972906C12.1369 0.981242 12.0483 1.0086 11.9683 1.05323L9.49997 2.43299L7.02919 1.05077C6.94909 1.00589 6.86046 0.978323 6.76904 0.969845C6.67762 0.961367 6.58544 0.972167 6.49845 1.00155C5.39689 1.37361 4.37588 1.95119 3.48954 2.7037C3.41717 2.76499 3.35893 2.84124 3.31886 2.9272C3.27878 3.01316 3.25781 3.10678 3.2574 3.20162L3.24509 5.96198L0.798098 7.35651C0.716232 7.40311 0.64536 7.4668 0.590298 7.54324C0.535236 7.61967 0.497276 7.70706 0.478997 7.79948C0.255048 8.92485 0.255048 10.0833 0.478997 11.2087C0.497276 11.3011 0.535236 11.3885 0.590298 11.4649C0.64536 11.5414 0.716232 11.6051 0.798098 11.6517L3.24509 13.0462L3.25493 15.8041C3.25523 15.8991 3.27614 15.9929 3.31622 16.079C3.3563 16.1651 3.4146 16.2415 3.48708 16.3028C4.37472 17.0537 5.3969 17.6291 6.49927 17.9984C6.58608 18.0278 6.67809 18.0387 6.76936 18.0303C6.86063 18.022 6.94914 17.9946 7.02919 17.95L9.49997 16.567L11.9708 17.9492C12.0685 18.0037 12.1787 18.0319 12.2907 18.0312C12.3623 18.0312 12.4335 18.0196 12.5015 17.9968C13.6029 17.6252 14.6239 17.0482 15.5104 16.2963C15.5828 16.235 15.641 16.1587 15.6811 16.0728C15.7212 15.9868 15.7421 15.8932 15.7426 15.7983L15.7549 13.038L18.2018 11.6435C18.2837 11.5969 18.3546 11.5332 18.4096 11.4567C18.4647 11.3803 18.5027 11.2929 18.521 11.2005C18.7437 10.076 18.7428 8.9187 18.5185 7.79455ZM17.288 10.6583L14.9444 11.9913C14.8417 12.0497 14.7567 12.1347 14.6983 12.2374C14.6507 12.3194 14.6007 12.4064 14.5498 12.4884C14.4847 12.5918 14.45 12.7115 14.4497 12.8337L14.4374 15.4792C13.8075 15.9739 13.1057 16.3695 12.3563 16.6523L9.99216 15.3349C9.89401 15.2806 9.78359 15.2523 9.67142 15.2528H9.65583C9.55657 15.2528 9.4565 15.2528 9.35724 15.2528C9.23984 15.2499 9.12377 15.2782 9.02091 15.3349L6.65513 16.6556C5.90414 16.375 5.20041 15.9813 4.56825 15.4883L4.55923 12.8469C4.55883 12.7244 4.52416 12.6045 4.45915 12.5007C4.40829 12.4187 4.35825 12.3366 4.3115 12.2497C4.25352 12.1454 4.16851 12.0587 4.0654 11.9987L1.71931 10.6624C1.5979 9.8944 1.5979 9.11213 1.71931 8.34416L4.05884 7.0087C4.16152 6.95031 4.24655 6.86529 4.30493 6.7626C4.35251 6.68057 4.40255 6.59362 4.45341 6.51159C4.51851 6.40814 4.55319 6.28846 4.55349 6.16623L4.56579 3.52073C5.19573 3.02603 5.89754 2.63046 6.64693 2.34768L9.00778 3.6651C9.11053 3.72206 9.22668 3.75038 9.34411 3.74713C9.44337 3.74713 9.54345 3.74713 9.64271 3.74713C9.7601 3.75007 9.87617 3.72176 9.97904 3.6651L12.3448 2.3444C13.0958 2.62501 13.7995 3.01864 14.4317 3.5117L14.4407 6.15311C14.4411 6.27558 14.4758 6.39549 14.5408 6.49928C14.5917 6.58131 14.6417 6.66334 14.6884 6.7503C14.7464 6.85457 14.8314 6.94128 14.9345 7.00131L17.2806 8.3376C17.4037 9.10616 17.405 9.88928 17.2847 10.6583H17.288Z" fill="#696F79"/>
</svg>
