<svg width="24" height="28" viewBox="0 0 24 28" fill="none" xmlns="http://www.w3.org/2000/svg">
<path d="M18.625 17.8614C17.9997 17.8612 17.3806 17.9865 16.8045 18.2299C16.2284 18.4732 15.707 18.8297 15.2711 19.2782L9.86879 15.806C10.2937 14.7162 10.2937 13.5066 9.86879 12.4169L15.2711 8.94462C16.0826 9.77586 17.1738 10.2762 18.3332 10.3486C19.4926 10.421 20.6376 10.0603 21.5461 9.33644C22.4547 8.6126 23.0622 7.57719 23.2507 6.43094C23.4392 5.28469 23.1954 4.10926 22.5665 3.13256C21.9377 2.15585 20.9685 1.44744 19.847 1.14468C18.7255 0.841917 17.5316 0.966368 16.4966 1.49391C15.4616 2.02144 14.6594 2.91448 14.2455 3.99988C13.8316 5.08529 13.8354 6.28572 14.2563 7.36845L8.85394 10.8407C8.2034 10.1728 7.36846 9.71413 6.45586 9.52323C5.54327 9.33233 4.59448 9.41791 3.73077 9.76904C2.86707 10.1202 2.12769 10.7209 1.60716 11.4944C1.08663 12.2679 0.808594 13.1791 0.808594 14.1114C0.808594 15.0438 1.08663 15.9549 1.60716 16.7284C2.12769 17.502 2.86707 18.1027 3.73077 18.4538C4.59448 18.8049 5.54327 18.8905 6.45586 18.6996C7.36846 18.5087 8.2034 18.05 8.85394 17.3821L14.2563 20.8544C13.8944 21.7878 13.8408 22.8126 14.1035 23.7787C14.3661 24.7447 14.9312 25.6013 15.7159 26.223C16.5006 26.8447 17.4637 27.1989 18.4642 27.2336C19.4648 27.2683 20.4501 26.9818 21.276 26.416C22.102 25.8501 22.725 25.0348 23.054 24.0892C23.383 23.1437 23.4006 22.1177 23.1042 21.1614C22.8079 20.2051 22.2132 19.3688 21.4071 18.775C20.6011 18.1812 19.6262 17.861 18.625 17.8614ZM18.625 2.86142C19.1813 2.86142 19.7251 3.02637 20.1876 3.33541C20.6501 3.64445 21.0106 4.08371 21.2235 4.59762C21.4363 5.11154 21.492 5.67704 21.3835 6.22261C21.275 6.76818 21.0071 7.26932 20.6138 7.66266C20.2204 8.05599 19.7193 8.32386 19.1737 8.43238C18.6282 8.5409 18.0627 8.4852 17.5487 8.27233C17.0348 8.05946 16.5956 7.69897 16.2865 7.23646C15.9775 6.77395 15.8125 6.23018 15.8125 5.67392C15.8125 4.928 16.1089 4.21263 16.6363 3.68518C17.1637 3.15774 17.8791 2.86142 18.625 2.86142ZM5.50004 16.9239C4.94378 16.9239 4.40001 16.759 3.9375 16.4499C3.47498 16.1409 3.1145 15.7016 2.90163 15.1877C2.68876 14.6738 2.63306 14.1083 2.74158 13.5627C2.8501 13.0172 3.11796 12.516 3.5113 12.1227C3.90464 11.7293 4.40577 11.4615 4.95135 11.353C5.49692 11.2444 6.06242 11.3001 6.57633 11.513C7.09025 11.7259 7.5295 12.0864 7.83855 12.5489C8.14759 13.0114 8.31254 13.5552 8.31254 14.1114C8.31254 14.8573 8.01622 15.5727 7.48878 16.1002C6.96133 16.6276 6.24596 16.9239 5.50004 16.9239ZM18.625 25.3614C18.0688 25.3614 17.525 25.1965 17.0625 24.8874C16.6 24.5784 16.2395 24.1391 16.0266 23.6252C15.8138 23.1113 15.7581 22.5458 15.8666 22.0002C15.9751 21.4547 16.243 20.9535 16.6363 20.5602C17.0296 20.1668 17.5308 19.899 18.0763 19.7905C18.6219 19.6819 19.1874 19.7376 19.7013 19.9505C20.2153 20.1634 20.6545 20.5239 20.9635 20.9864C21.2726 21.4489 21.4375 21.9927 21.4375 22.5489C21.4375 23.2948 21.1412 24.0102 20.6138 24.5377C20.0863 25.0651 19.371 25.3614 18.625 25.3614Z" fill="#8692A6"/>
</svg>
